<svg xmlns="http://www.w3.org/2000/svg" viewBox="0 0 700 500"><g id="freepik--background-simple--inject-40"><path d="M653.63,152.77C602.29,49,441.38-10,347.26,99.62q-5.55,6.48-10.49,13.51c-24,34.11-60,93.18-104,78.73-30.1-9.88-50.75-37.17-80.53-47.78-39.25-14-76.56,14.65-100.59,51.25C23.71,237.88,10.35,287.82,26.25,334c29.6,86,144.84,105.33,223.7,97.45,57.76-5.78,113.51-37.05,171.37-39,41.62-1.42,81.43,10.1,118.94,24.41,17.38,6.63,34.75,13.94,53.55,15.77,67.28,6.54,80.12-60.71,81.73-117.27C677.14,259.12,677.59,201.2,653.63,152.77Z" style="fill:#212121"></path><path d="M653.63,152.77C602.29,49,441.38-10,347.26,99.62q-5.55,6.48-10.49,13.51c-24,34.11-60,93.18-104,78.73-30.1-9.88-50.75-37.17-80.53-47.78-39.25-14-76.56,14.65-100.59,51.25C23.71,237.88,10.35,287.82,26.25,334c29.6,86,144.84,105.33,223.7,97.45,57.76-5.78,113.51-37.05,171.37-39,41.62-1.42,81.43,10.1,118.94,24.41,17.38,6.63,34.75,13.94,53.55,15.77,67.28,6.54,80.12-60.71,81.73-117.27C677.14,259.12,677.59,201.2,653.63,152.77Z" style="fill:#fff;opacity:0.7000000000000001"></path></g><g id="freepik--character-4--inject-40"><polyline points="647.9 337.5 644.23 361.84 648.9 453.5" style="fill:none;stroke:#263238;stroke-linecap:round;stroke-miterlimit:10;stroke-width:4px"></polyline><polyline points="602.59 337.5 598.93 361.84 603.59 453.5" style="fill:none;stroke:#263238;stroke-linecap:round;stroke-miterlimit:10;stroke-width:4px"></polyline><line x1="584.9" y1="360.84" x2="580.56" y2="454.5" style="fill:none;stroke:#263238;stroke-linecap:round;stroke-miterlimit:10;stroke-width:4px"></line><line x1="544.9" y1="360.84" x2="540.56" y2="454.5" style="fill:none;stroke:#263238;stroke-linecap:round;stroke-miterlimit:10;stroke-width:4px"></line><path d="M601.94,343.34h45a5,5,0,0,0,4.84-4.34l5.9-51.33a3.78,3.78,0,0,0-3.83-4.33h-45a5,5,0,0,0-4.83,4.33L598.11,339A3.78,3.78,0,0,0,601.94,343.34Z" style="fill:#212121;stroke:#263238;stroke-linecap:round;stroke-miterlimit:10"></path><path d="M543,363.5H644a3.75,3.75,0,0,0,3.75-3.75h0A3.75,3.75,0,0,0,644,356H543a3.75,3.75,0,0,0-3.75,3.75h0A3.75,3.75,0,0,0,543,363.5Z" style="fill:#212121;stroke:#263238;stroke-linecap:round;stroke-miterlimit:10"></path><path d="M585.71,245.48s-3.87,2.58-6.7,10-8.49,47.88-8.49,50.2,5.92,3.6,8.24,1.29,8-21.63,8-21.63l2.31-38.87S588.28,244.71,585.71,245.48Z" style="fill:#fff;stroke:#263238;stroke-linecap:round;stroke-miterlimit:10"></path><path d="M585.71,245.48s-3.87,2.58-6.7,10c-.85,2.24-2,7.45-3.08,13.7l11.34,7.14,1.78-29.85S588.28,244.71,585.71,245.48Z" style="fill:#fff;stroke:#263238;stroke-linecap:round;stroke-miterlimit:10"></path><path d="M605,239.82s-12.1,2.83-17,4.37-4.12,6.7-5.92,14.42-4.37,16.48-2.83,20.85,6.44,12.1,6.69,13.13-7.46,29.86-7.46,29.86-48.4,23.43-49.43,28.06-8,86.31-8,86.31c1.39,2.34,11.33,10.61,10.45,7.94-.25-.77,4-29.11,8.84-41.73s9.27-28.32,11.32-35.78S554.3,358,554.3,358l58.44.77s19.3,2.58,21.62-13.64-2.57-22.4-4.63-26-9.27-28.06-9.27-28.06,9.53-19.31,10.81-25.75,2.83-14.16-.51-17.5-16.48-7.47-16.48-7.47Z" style="fill:#263238;stroke:#263238;stroke-linecap:round;stroke-miterlimit:10"></path><path d="M628.81,317.05c-2.73-6.95-8.35-26-8.35-26s9.53-19.31,10.81-25.75,2.83-14.16-.51-17.5-16.48-7.47-16.48-7.47l-9.27-.51s-12.1,2.83-17,4.37-4.12,6.7-5.92,14.42-4.37,16.48-2.83,20.85,6.44,12.1,6.69,13.13c.19.75-3.8,16.06-6,24.46Z" style="fill:#fff;stroke:#263238;stroke-linecap:round;stroke-miterlimit:10"></path><path d="M521.11,436.82s-8.43,7.73-9.29,8.08S493,449.69,494.27,451s36.06,7.42,36.06,7.42l1.23-13.67Z" style="fill:#fff;stroke:#263238;stroke-linecap:round;stroke-miterlimit:10"></path><path d="M621,266.85l3.87,31.4-30.38,33.47-10.3,5.41-1.54,4.37s10.55-2.31,13.13-3.86a63.69,63.69,0,0,0,6.69-5.15L636.68,308s-.26-46.34-.52-52-8-10.3-11.07-10.3" style="fill:#fff;stroke:#263238;stroke-linecap:round;stroke-miterlimit:10"></path><path d="M624.84,298.25l-30.38,33.47-10.3,5.41-1.54,4.37s10.55-2.31,13.13-3.86a63.69,63.69,0,0,0,6.69-5.15L636.68,308s-.12-20.83-.27-36.26l-14.32,4.15Z" style="fill:#fff;stroke:#263238;stroke-linecap:round;stroke-miterlimit:10"></path><path d="M571.29,299s-1,8.24-.77,10.29,11.84,23.95,12.1,25.23,6.69,5.41,7.21,6.18,7.46,2.58,7.46,2.58,1.8-3.09.26-5.92-11.07-5.67-11.07-5.67l-5.41-28.06v-4.12" style="fill:#fff;stroke:#263238;stroke-linecap:round;stroke-miterlimit:10"></path><path d="M624.84,330.69s-6.44-2.32-17.77-.51-37.58,17.5-37.07,20.08,20.34,88.55,20.34,88.55l11.58,6.7s-2-33.47-1.8-51,0-37.33,0-37.33,18.28,4.89,26.52.77,8.75-12.1,7.72-18.28-3.35-7.46-3.35-7.46" style="fill:#263238;stroke:#263238;stroke-linecap:round;stroke-miterlimit:10"></path><path d="M590.34,438.81s-6.69,9.27-7.47,9.79-17.5,8.49-16,9.52,36.82,0,36.82,0l-1.55-13.64Z" style="fill:#fff;stroke:#263238;stroke-linecap:round;stroke-miterlimit:10"></path><path d="M596.3,203.6s-5.83-6.07-1.86-11.2,15.85-9.09,29.37-3.26,13.53,19.35,13.06,27.51-4.66,20.52-4.66,20.52a179.6,179.6,0,0,1-22.62-.7A39.68,39.68,0,0,1,590,228.78S595.14,207.09,596.3,203.6Z" style="fill:#263238;stroke:#263238;stroke-linecap:round;stroke-miterlimit:10"></path><path d="M602.6,232.74s-.47,5.6-1.17,9.09-1.17,15.39-.23,16.33,5.83-1.64,9.56-7.23a28,28,0,0,0,4.43-10l2.33-8.63S607.26,235.07,602.6,232.74Z" style="fill:#fff;stroke:#263238;stroke-linecap:round;stroke-miterlimit:10"></path><path d="M617.27,233.19l-1.61-.47c-3.18.68-9.63,1.74-13.06,0,0,0-.28,3.35-.73,6.48a12.9,12.9,0,0,0,5.34-.66,31.24,31.24,0,0,0,9.94-4.92Z" style="fill:#263238;stroke:#263238;stroke-linecap:round;stroke-miterlimit:10"></path><path d="M598.17,205s-3.15,14-1.76,19.36S599.89,237,606.89,237s13.61-5.72,15-9.68S625,211.06,625,211.06,607,213.39,598.17,205Z" style="fill:#fff;stroke:#263238;stroke-linecap:round;stroke-miterlimit:10"></path><path d="M610.8,216.91s1.3-1.94,6-.39" style="fill:none;stroke:#263238;stroke-linecap:round;stroke-miterlimit:10"></path><path d="M602.92,214.58S601.7,211,598.77,211" style="fill:none;stroke:#263238;stroke-linecap:round;stroke-miterlimit:10"></path><path d="M601.12,212.69c0,.81-.33.91-.71.87s-.66-.21-.66-1,.3-1.43.68-1.39S601.12,211.88,601.12,212.69Z" style="fill:#263238"></path><path d="M613.09,217c-.15.83-.4.85-.79.85s-.77,0-.62-.85.6-1.52,1-1.52S613.25,216.19,613.09,217Z" style="fill:#263238"></path><path d="M604.69,214a7.21,7.21,0,0,1-.6,3.21c-.71,1.3-2.91,3.1-2.41,3.8a3.33,3.33,0,0,0,3.41,1.8" style="fill:none;stroke:#263238;stroke-linecap:round;stroke-miterlimit:10"></path><path d="M601.08,225s2.7,2,7.61,1.1" style="fill:none;stroke:#263238;stroke-linecap:round;stroke-miterlimit:10"></path><path d="M599,208.58a4,4,0,0,1,4.8,1.31" style="fill:none;stroke:#263238;stroke-linecap:round;stroke-miterlimit:10"></path><path d="M610.19,212.09s3.91-2.2,7.92,1.5" style="fill:none;stroke:#263238;stroke-linecap:round;stroke-miterlimit:10"></path></g><g id="freepik--character-3--inject-40"><line x1="403.56" y1="454.96" x2="407.25" y2="358.86" style="fill:none;stroke:#263238;stroke-linecap:round;stroke-miterlimit:10;stroke-width:4px"></line><line x1="409.41" y1="454.96" x2="414.34" y2="333.9" style="fill:none;stroke:#263238;stroke-linecap:round;stroke-miterlimit:10;stroke-width:4px"></line><line x1="477.79" y1="454.96" x2="472.55" y2="335.14" style="fill:none;stroke:#263238;stroke-linecap:round;stroke-miterlimit:10;stroke-width:4px"></line><line x1="483.03" y1="454.96" x2="479.33" y2="358.86" style="fill:none;stroke:#263238;stroke-linecap:round;stroke-miterlimit:10;stroke-width:4px"></line><rect x="409.99" y="285" width="66" height="59.5" rx="4.5" style="fill:#212121;stroke:#263238;stroke-linecap:round;stroke-miterlimit:10"></rect><path d="M483.36,363.5H405.78a3.75,3.75,0,0,1-3.75-3.75h0a3.75,3.75,0,0,1,3.75-3.75h77.58a3.75,3.75,0,0,1,3.75,3.75h0A3.75,3.75,0,0,1,483.36,363.5Z" style="fill:#212121;stroke:#263238;stroke-linecap:round;stroke-miterlimit:10"></path><path d="M415.6,320s-5,9.23-6.86,12.4-3.7,15-1.32,18.47,4.22,4.75,6.33,5.54,57.26,0,57.26,0,6.07-8.44,6.6-12.4-1.06-13.46-2.64-16.62-6.07-8.45-6.07-8.45Z" style="fill:#fff;stroke:#263238;stroke-linecap:round;stroke-miterlimit:10"></path><path d="M492.12,277l21.64-31.67s1.84-8.17,2.11-10.55,1.58-3.69,3.43-5a31.15,31.15,0,0,0,5.27-4.49c1.06-1.32,1.85.27,1.32,2.11s-2.37,2.64-3.16,3.17-1.32,2.64-1.32,2.64,9.23-3.43,11.08-4.49,5.8-6.86,6.07-4-3.43,11.88-4.22,12.41-14.78,10.55-14.78,10.55-15.3,40.9-16.89,44.33-3.69,6.07-4.48,6.07-16.36-10-16.36-10l10-12.14Z" style="fill:#fff;stroke:#263238;stroke-linecap:round;stroke-miterlimit:10"></path><path d="M389,277l-21.64-31.67s-1.84-8.17-2.11-10.55-1.58-3.69-3.43-5a31.25,31.25,0,0,1-5.28-4.49c-1.05-1.32-1.84.27-1.31,2.11s2.37,2.64,3.16,3.17,1.32,2.64,1.32,2.64-9.23-3.43-11.08-4.49-5.81-6.86-6.07-4,3.43,11.88,4.22,12.41,14.78,10.55,14.78,10.55,15.3,40.9,16.88,44.33,3.7,6.07,4.49,6.07,16.36-10,16.36-10l-10-12.14Z" style="fill:#fff;stroke:#263238;stroke-linecap:round;stroke-miterlimit:10"></path><path d="M433,241.59l-23.22,6.33L389,276.16l9.5,17.41,14.77-12.66,3.43,32.71-2.37,9s-.79.79,14,3.69,19,1.85,26.39.79,16.89-4.48,16.89-4.48l-2.64-11.35,4.48-28.5,11.88,12.93,8.18-20.32-17.15-27.44-25.6-6.33Z" style="fill:#263238;stroke:#263238;stroke-linecap:round;stroke-miterlimit:10"></path><path d="M427.18,209.05s-3-4.48-4.56.08,5.07,10.16,5.07,10.16l.45-9.55" style="fill:#fff;stroke:#263238;stroke-linecap:round;stroke-miterlimit:10"></path><path d="M435.12,237.9,432.75,240l-3.17,5.27.8,18.74,14.51-9.76L457.55,264s-1.84-21.37-1.84-22.69-2.91-3.43-4.75-4.49S435.12,237.9,435.12,237.9Z" style="fill:#fff;stroke:#263238;stroke-linecap:round;stroke-miterlimit:10"></path><path d="M434.33,235s.27,6.86.53,8.18,10,15,10,15l6.86-16.09.53-15.57Z" style="fill:#fff;stroke:#263238;stroke-linecap:round;stroke-miterlimit:10"></path><path d="M434.63,240.81a11.58,11.58,0,0,0,4.05-.24c6.85-1.55,10.6-7.95,10.6-7.95l-8.12-.84L434.33,235S434.46,238.34,434.63,240.81Z" style="fill:#263238;stroke:#263238;stroke-linecap:round;stroke-miterlimit:10"></path><path d="M426.29,201.17s.94,24.45,1.61,27,6,10.84,12,10.19S452,233,452.59,229.1s2.17-15.41,3.17-20.06,5-9.63-3.63-14.2S426.4,193.7,426.29,201.17Z" style="fill:#fff;stroke:#263238;stroke-linecap:round;stroke-miterlimit:10"></path><path d="M432.3,213.76c-.06,1-.57,1.85-1.16,1.82s-1-.9-.95-1.93.58-1.85,1.17-1.82S432.36,212.73,432.3,213.76Z" style="fill:#263238"></path><path d="M442.11,216c-.06,1-.58,1.85-1.16,1.81s-1-.9-.95-1.93.58-1.85,1.16-1.82S442.17,214.92,442.11,216Z" style="fill:#263238"></path><path d="M434.49,211.81a54.58,54.58,0,0,1-1.08,6.78c-.63,2.3-2.84,2.76-1.48,4.31s3.79,1.4,6.26,1" style="fill:none;stroke:#263238;stroke-linecap:round;stroke-miterlimit:10"></path><path d="M431.7,226.06s3.32,2.67,10.24,1.09" style="fill:none;stroke:#263238;stroke-linecap:round;stroke-miterlimit:10"></path><path d="M429.26,209.38s3.2-1.63,4.21.4" style="fill:none;stroke:#263238;stroke-linecap:round;stroke-miterlimit:10"></path><path d="M438.64,210.87s3.94-1.25,7,3" style="fill:none;stroke:#263238;stroke-linecap:round;stroke-miterlimit:10"></path><path d="M450.87,204.52s-13.17,2.19-19.38.94-11.77-6.67-8.9-11.29,19.4-9.49,25.91-8.46,12.87,3.11,13.14,9.83-2.57,19.63-2.57,19.63L457,216.44s-2.82-4.18-4.12-4.39S447.7,209.36,450.87,204.52Z" style="fill:#263238;stroke:#263238;stroke-linecap:round;stroke-miterlimit:10"></path><path d="M453.61,215.91s6-5.73,7.78-3.58-.24,8.24-3.9,11.14-5.12.26-5.12.26" style="fill:#fff;stroke:#263238;stroke-linecap:round;stroke-miterlimit:10"></path><path d="M442.13,439.23s-8.4-98.45-12.13-105.45-13.65-10.24-22.83-2.58-3.33,21.59-1.35,31.74,16.83,70.63,16.83,70.63Z" style="fill:#fff;stroke:#263238;stroke-linecap:round;stroke-miterlimit:10"></path><path d="M422.65,433.57,419.58,442S407,452,407.5,453.57a3.78,3.78,0,0,1,.18.74A2.39,2.39,0,0,0,410,456.4h35.27a47.37,47.37,0,0,0,0-9c-.51-3.6-3-8.58-3-8.58Z" style="fill:#263238;stroke:#263238;stroke-linecap:round;stroke-miterlimit:10"></path><path d="M445.48,453.06H407.62a.73.73,0,0,0-.12.51,3.78,3.78,0,0,1,.18.74A2.39,2.39,0,0,0,410,456.4h35.27S445.42,455,445.48,453.06Z" style="fill:#fff;stroke:#263238;stroke-linecap:round;stroke-miterlimit:10"></path><path d="M450.61,439.72s3.13-98.64,6.55-105.79,13.2-10.82,22.7-3.57,4.26,21.43,2.72,31.65S470,434,470,434Z" style="fill:#fff;stroke:#263238;stroke-linecap:round;stroke-miterlimit:10"></path><path d="M470,434l3,8s12.59,10,12.08,11.57a4.66,4.66,0,0,0-.18.74,2.39,2.39,0,0,1-2.33,2.09H447.29a47.37,47.37,0,0,1,0-9c.51-3.6,3-8.58,3-8.58Z" style="fill:#263238;stroke:#263238;stroke-linecap:round;stroke-miterlimit:10"></path><path d="M447.09,453.06H485a.73.73,0,0,1,.12.51,4.66,4.66,0,0,0-.18.74,2.39,2.39,0,0,1-2.33,2.09H447.29S447.15,455,447.09,453.06Z" style="fill:#fff;stroke:#263238;stroke-linecap:round;stroke-miterlimit:10"></path><path d="M398.87,150.7H351.13a7.35,7.35,0,0,0-7.35,7.35v25.54a7.35,7.35,0,0,0,7.35,7.35h31.09L403,205.62l-6-14.68h1.83a7.35,7.35,0,0,0,7.35-7.35V158.05A7.35,7.35,0,0,0,398.87,150.7Z" style="fill:#212121;stroke:#263238;stroke-miterlimit:10"></path><path d="M363.51,170.5A2.56,2.56,0,1,1,361,168,2.56,2.56,0,0,1,363.51,170.5Z" style="fill:#263238"></path><path d="M377.55,170.5A2.55,2.55,0,1,1,375,168,2.56,2.56,0,0,1,377.55,170.5Z" style="fill:#263238"></path><path d="M391.6,170.5a2.56,2.56,0,1,1-2.55-2.55A2.56,2.56,0,0,1,391.6,170.5Z" style="fill:#263238"></path></g><g id="freepik--character-2--inject-40"><line x1="255.42" y1="454.96" x2="259.11" y2="358.86" style="fill:none;stroke:#263238;stroke-linecap:round;stroke-miterlimit:10;stroke-width:4px"></line><line x1="261.27" y1="454.96" x2="266.2" y2="333.9" style="fill:none;stroke:#263238;stroke-linecap:round;stroke-miterlimit:10;stroke-width:4px"></line><line x1="329.65" y1="454.96" x2="324.41" y2="335.14" style="fill:none;stroke:#263238;stroke-linecap:round;stroke-miterlimit:10;stroke-width:4px"></line><line x1="334.89" y1="454.96" x2="331.19" y2="358.86" style="fill:none;stroke:#263238;stroke-linecap:round;stroke-miterlimit:10;stroke-width:4px"></line><rect x="261.85" y="285" width="66" height="59.5" rx="4.5" style="fill:#212121;stroke:#263238;stroke-linecap:round;stroke-miterlimit:10"></rect><path d="M335.22,363.5H257.64a3.75,3.75,0,0,1-3.75-3.75h0a3.75,3.75,0,0,1,3.75-3.75h77.58a3.75,3.75,0,0,1,3.75,3.75h0A3.75,3.75,0,0,1,335.22,363.5Z" style="fill:#212121;stroke:#263238;stroke-linecap:round;stroke-miterlimit:10"></path><path d="M280.28,203A13.75,13.75,0,0,0,269.55,197c-7.62-.58-14.84,4.1-18.36,11.52s3.91,11.91,3.91,16.6-9.77,5.86-13.08,12.11-3.91,17.76,8.78,23.62,22.85,2.34,28.9-2.73,3.32-13.28,1.17-20.5,2.93-22.26,4.49-26.17S280.28,203,280.28,203Z" style="fill:#263238;stroke:#263238;stroke-linecap:round;stroke-miterlimit:10"></path><path d="M265.23,294,259,317.5s-3.5,4-7.75,2.75-3.75-6.5-3.5-7.5l6.75-27Z" style="fill:#fff;stroke:#263238;stroke-linecap:round;stroke-miterlimit:10"></path><path d="M285.1,243.75s-.25,8.5-1.75,11-8.75,3.75-13,4.75-8.75,3.25-11.25,6.75S248.6,291,248.6,291l17,9,2.25-8.25,6.75,11.5s-10,16.25-13.5,26.25-3.25,17.75,2.25,23.75,11.75,6.75,17.75,7,34.5,1,41-1.5S332.6,351,331.85,338s-14.25-32.5-15-34.25-1.5-3.25-1.5-3.25l2-10.75,3.25,7.75,15.75-10.75s-7.75-18.5-12-23-10.5-5.25-15.25-6-6.75-2-8.5-4.75-1.5-9.25-1.5-9.25Z" style="fill:#fff;stroke:#263238;stroke-linecap:round;stroke-miterlimit:10"></path><path d="M299.09,244.69l-7-.94h-7s0,1.4-.19,3.21c1.89,1.56,6.83,5.41,9.83,5.76a14.53,14.53,0,0,0,5.42-.59A22.3,22.3,0,0,1,299.09,244.69Z" style="fill:#263238;stroke:#263238;stroke-linecap:round;stroke-miterlimit:10"></path><path d="M322.1,294l6.25,23.5s3.5,4,7.75,2.75,3.75-6.5,3.5-7.5l-6.75-27Z" style="fill:#fff;stroke:#263238;stroke-linecap:round;stroke-miterlimit:10"></path><path d="M331.85,338c-.75-13-14.25-32.5-15-34.25s-1.5-3.25-1.5-3.25l2-10.75,3.25,7.75,15.75-10.75s-7.75-18.5-12-23c-3.05-3.23-7.13-4.52-11-5.27l-4.8,18.77h-31l-5.94-18-1.31.29c-4.25,1-8.75,3.25-11.25,6.75S248.6,291,248.6,291l17,9,2.25-8.25,6.75,11.5s-10,16.25-13.5,26.25-3.25,17.75,2.25,23.75,11.75,6.75,17.75,7,34.5,1,41-1.5S332.6,351,331.85,338Z" style="fill:#263238;stroke:#263238;stroke-linecap:round;stroke-miterlimit:10"></path><path d="M285.35,427.25s-11.5-67.25-12-74.5,4.75-11.5,10.75-12.75,11,5,11.5,9.25c.42,3.61.31,61.24.26,77A45.09,45.09,0,0,1,295,435c-.48,2.4-1,5.08-1.13,6-.25,1.75-.25,9-3.25,13s-7.5,6.75-9,2-.25-11.75,1-15.5,2.5-6.75,2.5-6.75Z" style="fill:#fff;stroke:#263238;stroke-linecap:round;stroke-miterlimit:10"></path><path d="M293.6,437.5c-1.75,4.5-3,8-6.75,8.25s-4.25-5.25-4.25-5.25c-1.25,3.75-2.5,10.75-1,15.5s6,2,9-2,3-11.25,3.25-13c.13-.89.65-3.57,1.13-6,.11-.55.2-1.11.29-1.66C294.69,434.76,294.1,436.21,293.6,437.5Z" style="fill:#263238;stroke:#263238;stroke-linecap:round;stroke-miterlimit:10"></path><path d="M307.88,427.25s11.5-67.25,12-74.5-4.75-11.5-10.75-12.75-11,5-11.5,9.25c-.43,3.61-.31,61.24-.27,77a45.1,45.1,0,0,0,.89,8.75c.48,2.4,1,5.08,1.13,6,.25,1.75.25,9,3.25,13s7.5,6.75,9,2,.25-11.75-1-15.5-2.5-6.75-2.5-6.75Z" style="fill:#fff;stroke:#263238;stroke-linecap:round;stroke-miterlimit:10"></path><path d="M299.63,437.5c1.75,4.5,3,8,6.75,8.25s4.25-5.25,4.25-5.25c1.25,3.75,2.5,10.75,1,15.5s-6,2-9-2-3-11.25-3.25-13c-.13-.89-.65-3.57-1.13-6-.11-.55-.21-1.11-.3-1.66C298.54,434.76,299.12,436.21,299.63,437.5Z" style="fill:#263238;stroke:#263238;stroke-linecap:round;stroke-miterlimit:10"></path><path d="M332.6,311.25,303.35,332s-4.75,2-5.25,2.75-3.5,7.75-2.75,9,2.23,3.53,2.23,3.53a12.31,12.31,0,0,0,2-3c.25-1,4.75-3.5,5.75-5.75s2.75-5.25,2.75-5.25,22.25-8.25,24.75-10,7-2.75,7-8" style="fill:#fff;stroke:#263238;stroke-linecap:round;stroke-miterlimit:10"></path><path d="M254.42,311l31.3,17.5s4.94,1.48,5.52,2.17,4.31,7.33,3.69,8.65l-1.74,3.79a12.74,12.74,0,0,1-2.43-2.83c-.35-1-5.1-3-6.33-5.1s-3.3-4.93-3.3-4.93-23-5.82-25.68-7.29-7.25-2-7.81-7.21" style="fill:#fff;stroke:#263238;stroke-linecap:round;stroke-miterlimit:10"></path><path d="M287.62,201.35c-.71.2-1.42.39-2.14.55A12.4,12.4,0,0,0,275.61,213c-1,8.13.39,18.59,3.29,25.28s13.06,13,18.88,10.39,9.18-10.2,9.18-19.22.26-16.64-3.81-22.17C299.37,202.13,293.05,199.85,287.62,201.35Z" style="fill:#fff;stroke:#263238;stroke-linecap:round;stroke-miterlimit:10"></path><path d="M303.15,207.26c-3.78-5.13-10.1-7.41-15.53-5.91-.71.2-1.42.39-2.14.55A12.4,12.4,0,0,0,275.61,213a55.8,55.8,0,0,0,.25,13.56l.1-.06s2.42-1.56,2.42-4-.34-8.31,4.68-11.78,13-3.63,16.11-2.77,4.85,1.22,6.58,5.72l.53,1.38A18.31,18.31,0,0,0,303.15,207.26Z" style="fill:#263238;stroke:#263238;stroke-linecap:round;stroke-miterlimit:10"></path><path d="M278.56,227.7s-3.81-5.2-5.72-1.91.52,7.79,2.25,8.83,3.29-2.42,3.29-2.42" style="fill:#fff;stroke:#263238;stroke-linecap:round;stroke-miterlimit:10"></path><ellipse cx="289.03" cy="225.2" rx="1" ry="1.77" style="fill:#263238"></ellipse><ellipse cx="299.34" cy="224.23" rx="1" ry="1.77" style="fill:#263238"></ellipse><path d="M295.88,221.81s.34,3.81,1,5,4.16,1.56,2.6,3.46a3.13,3.13,0,0,1-4.5.52" style="fill:none;stroke:#263238;stroke-linecap:round;stroke-miterlimit:10"></path><path d="M291.2,233.76a8.14,8.14,0,0,0,8.49-.52" style="fill:none;stroke:#263238;stroke-linecap:round;stroke-miterlimit:10"></path><path d="M284.1,221.11s3.12-3.63,7.1-1.38" style="fill:none;stroke:#263238;stroke-linecap:round;stroke-miterlimit:10"></path><path d="M296.05,219.38s3.64-2.59,6.23.35" style="fill:none;stroke:#263238;stroke-linecap:round;stroke-miterlimit:10"></path></g><g id="freepik--character-1--inject-40"><polyline points="83.16 337.5 86.82 361.84 82.16 453.5" style="fill:none;stroke:#263238;stroke-linecap:round;stroke-miterlimit:10;stroke-width:4px"></polyline><polyline points="129.62 337.5 133.29 361.84 128.62 453.5" style="fill:none;stroke:#263238;stroke-linecap:round;stroke-miterlimit:10;stroke-width:4px"></polyline><line x1="146.15" y1="360.84" x2="150.49" y2="454.5" style="fill:none;stroke:#263238;stroke-linecap:round;stroke-miterlimit:10;stroke-width:4px"></line><line x1="186.15" y1="360.84" x2="190.49" y2="454.5" style="fill:none;stroke:#263238;stroke-linecap:round;stroke-miterlimit:10;stroke-width:4px"></line><path d="M129.11,343.34h-45A5,5,0,0,1,79.28,339l-5.91-51.33a3.78,3.78,0,0,1,3.83-4.33h45a5,5,0,0,1,4.83,4.33L132.94,339A3.78,3.78,0,0,1,129.11,343.34Z" style="fill:#212121;stroke:#263238;stroke-linecap:round;stroke-miterlimit:10"></path><path d="M188.07,363.5h-101a3.75,3.75,0,0,1-3.75-3.75h0A3.75,3.75,0,0,1,87.07,356h101a3.75,3.75,0,0,1,3.75,3.75h0A3.75,3.75,0,0,1,188.07,363.5Z" style="fill:#212121;stroke:#263238;stroke-linecap:round;stroke-miterlimit:10"></path><path d="M132.24,258.5s7.5,2.75,9,6.25S152,308.25,152,308.25l33.75,7.25-3.75,5-39.25.5Z" style="fill:#fff;stroke:#263238;stroke-linecap:round;stroke-miterlimit:10"></path><path d="M138.78,297.42l10.07-2.56c-2.83-12-6.69-27.95-7.61-30.11-1.5-3.5-9-6.25-9-6.25Z" style="fill:#263238;stroke:#263238;stroke-linecap:round;stroke-miterlimit:10"></path><path d="M99,253.5l-20.5,11.25s6,45.5,7.75,57,3.5,20,8.5,21.75,45.75-7.75,48.5-8.75,1.75-9.75.5-14.25-8-53-8.25-57-3.5-6-8.75-8-18.25-2.75-22.25-2.75S99,253.5,99,253.5Z" style="fill:#263238;stroke:#263238;stroke-linecap:round;stroke-miterlimit:10"></path><path d="M99,253.5l-5.81,3.19L115.49,285l8.71-30.24c-6.09-1.44-16.26-2-19.71-2C100.49,252.75,99,253.5,99,253.5Z" style="fill:#fff;stroke:#263238;stroke-linecap:round;stroke-miterlimit:10"></path><polygon points="95.49 244.5 97.24 255.5 113.74 278 118.99 254.5 118.99 243.25 95.49 244.5" style="fill:#fff;stroke:#263238;stroke-linecap:round;stroke-miterlimit:10"></polygon><path d="M88,206.75S86.74,203,81.49,203,71,209,71,215a8.34,8.34,0,0,0,9,8.5c4-.25,6.25-1.75,7.25-5S88,206.75,88,206.75Z" style="fill:#263238;stroke:#263238;stroke-linecap:round;stroke-miterlimit:10"></path><path d="M89.73,202.37a17.91,17.91,0,0,0-4.13,10.57c-.34,6.53,3.43,18.2,4.46,23.35s4.94,13.22,17,14.94,16-12.88,16-17.69-2.4-19.22-4.46-25.4-5.15-10.64-12.36-11.33S93.76,198.17,89.73,202.37Z" style="fill:#fff;stroke:#263238;stroke-linecap:round;stroke-miterlimit:10"></path><path d="M123,233.54a89,89,0,0,0-1.43-12c.1,1.19.28,3,.65,5.72.75,5.5-.5,6.25-.5,6.25s-2.25-3.75-9.5-5-15.75,9.25-16.5,9.25-1-1-2-4.25-4-9.75-3-12.75,1-3.5-.5-6.25-2.25-3.75,2-7.24c5-4.12,13.72-4.6,20-4.88a6.7,6.7,0,0,1,4.18.82,12.3,12.3,0,0,0-10.2-6.39c-7.21-.69-12.44,1.36-16.47,5.56a17.91,17.91,0,0,0-4.13,10.57c-.34,6.53,3.43,18.2,4.46,23.35s4.94,13.22,17,14.94S123,238.35,123,233.54Z" style="fill:#263238;stroke:#263238;stroke-linecap:round;stroke-miterlimit:10"></path><path d="M115.74,233.25a33.68,33.68,0,0,1-12,2" style="fill:none;stroke:#fff;stroke-linecap:round;stroke-miterlimit:10"></path><path d="M111,217.75l1.25,9.25s-3,4.25-6.75-1" style="fill:none;stroke:#263238;stroke-linecap:round;stroke-miterlimit:10"></path><path d="M105.24,214.5c-.21.23-7-2-8.75,3.75" style="fill:none;stroke:#263238;stroke-linecap:round;stroke-miterlimit:10;stroke-width:2px"></path><path d="M111.24,213.5s4.5-3.5,8,1.25" style="fill:none;stroke:#263238;stroke-linecap:round;stroke-miterlimit:10;stroke-width:2px"></path><ellipse cx="102.11" cy="220" rx="1.13" ry="2" style="fill:#263238"></ellipse><ellipse cx="115.74" cy="219" rx="1.13" ry="2" style="fill:#263238"></ellipse><path d="M86.74,224s-4-3-4.25,2.75A8.07,8.07,0,0,0,88.24,235c1.25.25,1.5-1.5,1.5-1.5Z" style="fill:#fff;stroke:#263238;stroke-linecap:round;stroke-miterlimit:10"></path><path d="M81.24,263.5s-7.5,2.75-9.75,4.5-5.34,8.83-3.24,24.24c.74,5.45,6.24,43.26,6.24,43.26l61.5-3.25,10.25-3.5L89.49,319.5,85,277" style="fill:#263238;stroke:#263238;stroke-linecap:round;stroke-miterlimit:10"></path><path d="M74.49,335.5l61.5-3.25,10.25-3.5L89.49,319.5,87,300.05l-17.55,1.53C70.46,315.37,74.49,335.5,74.49,335.5Z" style="fill:#fff;stroke:#263238;stroke-linecap:round;stroke-miterlimit:10"></path><path d="M89,336s4,16,9.75,21,15.75,4.25,25.25,4.25,30.25-5.5,31-5.5,35.5,8.75,35.5,8.75l-10.75,79.25,15.5,3S217,369,217,367.25s5-8.75-3.5-19.5-50.25-14-59.5-16.25S89,336,89,336Z" style="fill:#fff;stroke:#263238;stroke-linecap:round;stroke-miterlimit:10"></path><path d="M173.42,341.93l-12.68,15L155,355.75l-7.25,1.75s-.36-2.88,4.65-8.89S173.42,341.93,173.42,341.93Z" style="fill:#263238"></path><path d="M179.74,443.75l-2.5,12.75s12.75,3,16.25,3.75,14.75.25,17.25,0-1.75-2.75-3.25-3.5-13-7.75-13-7.75l.75-2.25Z" style="fill:#fff;stroke:#263238;stroke-linecap:round;stroke-miterlimit:10"></path><path d="M105,340.25s49-19.88,54-21.75c10.75-4,25.91-2.94,28-2.5,4.75,1,49.25,45.75,49.25,45.75l-9.5,8.5-45.75-32s-26.75,16-33.25,19.25-21,5.25-31.75,4.5-17.5-6.25-19.25-9.75-1-5.75-1-5.75" style="fill:#fff;stroke:#263238;stroke-linecap:round;stroke-miterlimit:10"></path><path d="M226.74,370.25,239.49,382s24.25-25.5,25-26.5,3-5.25,1.5-5.25-27.25,12.25-27.25,12.25l-2.5-.75Z" style="fill:#fff;stroke:#263238;stroke-linecap:round;stroke-miterlimit:10"></path><path d="M185.74,315.5s11.5.75,12,1.75,4.75,7,5,8.75a31,31,0,0,1,.25,3.75s-9.5-5.25-10-6.5a18.6,18.6,0,0,1-.75-3.75Z" style="fill:#fff;stroke:#263238;stroke-linecap:round;stroke-miterlimit:10"></path></g></svg>